<svg width="189" height="57" viewBox="0 0 189 57" fill="none" xmlns="http://www.w3.org/2000/svg">
    <path d="M70.916 20.6797L68.123 21.6172L62.459 28.5605C63.0579 29.2181 63.6113 29.7422 64.1191 30.1328C64.6335 30.5234 65.0859 30.8229 65.4766 31.0312C65.9258 31.2786 66.3392 31.4479 66.7168 31.5391C66.9577 31.5846 67.2051 31.5911 67.459 31.5586C67.7194 31.526 67.9766 31.4674 68.2305 31.3828C68.4844 31.2917 68.7318 31.181 68.9727 31.0508C69.2135 30.9206 69.4349 30.7871 69.6367 30.6504C69.8451 30.5072 70.0306 30.3672 70.1934 30.2305C70.3561 30.0872 70.4863 29.957 70.584 29.8398C70.5124 30.2956 70.3887 30.7188 70.2129 31.1094C70.0436 31.4935 69.8418 31.8418 69.6074 32.1543C69.373 32.4668 69.1224 32.7435 68.8555 32.9844C68.5951 33.2188 68.3379 33.4173 68.084 33.5801C67.8301 33.7428 67.5957 33.8698 67.3809 33.9609C67.166 34.0456 66.9935 34.0911 66.8633 34.0977C66.4987 34.0781 66.0462 33.8991 65.5059 33.5605C65.278 33.4173 65.0176 33.235 64.7246 33.0137C64.4382 32.7858 64.1191 32.5059 63.7676 32.1738C63.4225 31.8353 63.0449 31.4382 62.6348 30.9824C62.2246 30.5202 61.7852 29.9863 61.3164 29.3809L61.4629 32.5156L63.8555 33.6582L56.5605 34.0977L59.1973 32.1641L59.4023 21.9199L56.9414 20.543L63.4844 20.2988L61.043 21.8613L61.2773 28.1016L65.4375 21.4609L64.7246 20.2988L70.916 20.6797ZM73.166 30.416C73.2507 30.7806 73.3646 31.1387 73.5078 31.4902C73.651 31.8353 73.8268 32.1445 74.0352 32.418C74.2435 32.6914 74.4844 32.9128 74.7578 33.082C75.0312 33.2513 75.3405 33.3359 75.6855 33.3359C76.1413 33.3359 76.5384 33.2415 76.877 33.0527C77.2155 32.8639 77.4922 32.6263 77.707 32.3398C77.9219 32.0469 78.0716 31.7279 78.1562 31.3828C78.2409 31.0312 78.2572 30.696 78.2051 30.377C78.3874 30.4486 78.5371 30.543 78.6543 30.6602C78.778 30.7773 78.8724 30.9076 78.9375 31.0508C79.0091 31.1875 79.0579 31.3307 79.084 31.4805C79.11 31.6237 79.123 31.7637 79.123 31.9004C79.123 32.2129 79.0319 32.5156 78.8496 32.8086C78.6673 33.0951 78.4102 33.3522 78.0781 33.5801C77.7526 33.8014 77.3652 33.9805 76.916 34.1172C76.4668 34.2539 75.9753 34.3223 75.4414 34.3223C74.7253 34.3223 74.084 34.1823 73.5176 33.9023C72.9577 33.6224 72.4824 33.2448 72.0918 32.7695C71.7012 32.2878 71.4017 31.7246 71.1934 31.0801C70.985 30.4355 70.8809 29.7487 70.8809 29.0195C70.8809 28.2773 70.985 27.5938 71.1934 26.9688C71.4017 26.3372 71.7077 25.8001 72.1113 25.3574C72.5215 24.9147 73.0228 24.5794 73.6152 24.3516C74.2077 24.1237 74.8913 24.0326 75.666 24.0781C76.1999 24.1172 76.6914 24.2702 77.1406 24.5371C77.5898 24.804 77.9805 25.1491 78.3125 25.5723C78.651 25.9889 78.9212 26.4674 79.123 27.0078C79.3314 27.5482 79.4583 28.1113 79.5039 28.6973L73.166 30.416ZM72.9805 28.8438C72.9805 28.9349 72.9805 29.026 72.9805 29.1172C72.9805 29.2018 72.987 29.2897 73 29.3809L77.2871 27.8184C77.1439 27.3496 76.9811 26.9492 76.7988 26.6172C76.623 26.2786 76.4375 26.002 76.2422 25.7871C76.0469 25.5723 75.8483 25.416 75.6465 25.3184C75.4512 25.2142 75.2624 25.1621 75.0801 25.1621C74.8066 25.1621 74.5658 25.2142 74.3574 25.3184C74.1491 25.4225 73.9668 25.5658 73.8105 25.748C73.6608 25.9238 73.5306 26.1322 73.4199 26.373C73.3158 26.6139 73.2311 26.8711 73.166 27.1445C73.1009 27.418 73.0521 27.7012 73.0195 27.9941C72.9935 28.2806 72.9805 28.5638 72.9805 28.8438ZM82.5059 32.7793L84.459 33.5605L79.5664 34.0391L81.3242 32.6621L81.0215 22.1152L78.7656 21.1387L83.707 20.4844L82.5059 32.7793ZM87.0215 32.7793L88.9746 33.5605L84.082 34.0391L85.8398 32.6621L85.5371 22.1152L83.2812 21.1387L88.2227 20.4844L87.0215 32.7793ZM97.416 25.4648C97.4811 25.9987 97.5299 26.5781 97.5625 27.2031C97.6016 27.8281 97.6146 28.4694 97.6016 29.127C97.5885 29.7845 97.5462 30.4453 97.4746 31.1094C97.403 31.7669 97.2891 32.4017 97.1328 33.0137C96.9766 33.6191 96.7747 34.1855 96.5273 34.7129C96.2799 35.2402 95.974 35.696 95.6094 36.0801C95.2513 36.4707 94.8281 36.7767 94.3398 36.998C93.8581 37.2259 93.3014 37.3398 92.6699 37.3398C91.9538 37.3398 91.1888 37.1608 90.375 36.8027L89.6523 38.2383L88.6562 34.4004C88.9492 34.7845 89.2487 35.0938 89.5547 35.3281C89.8672 35.5625 90.1634 35.7415 90.4434 35.8652C90.7298 35.9954 90.9902 36.0801 91.2246 36.1191C91.4655 36.1582 91.6608 36.1777 91.8105 36.1777C92.3444 36.1777 92.8197 36.0085 93.2363 35.6699C93.6595 35.3379 94.0306 34.8757 94.3496 34.2832C93.8288 33.7363 93.321 33.1439 92.8262 32.5059C92.3379 31.8613 91.8952 31.1777 91.498 30.4551C91.1009 29.7259 90.7656 28.9609 90.4922 28.1602C90.2253 27.3594 90.0527 26.526 89.9746 25.6602L88.373 24.8008L92.8945 24.1562L92.0547 25.2988C92.224 26.6074 92.5495 27.8932 93.0312 29.1562C93.513 30.4193 94.1413 31.7018 94.916 33.0039C95.0853 32.5156 95.2318 31.9883 95.3555 31.4219C95.4857 30.8555 95.5931 30.2565 95.6777 29.625C95.7689 28.9935 95.8372 28.3392 95.8828 27.6621C95.9284 26.9785 95.9577 26.2852 95.9707 25.582L94.5156 24.1562C95.056 24.1953 95.5312 24.2311 95.9414 24.2637C96.3581 24.2962 96.7194 24.3255 97.0254 24.3516C97.3314 24.3711 97.5885 24.3906 97.7969 24.4102C98.0117 24.4232 98.1875 24.4329 98.3242 24.4395C98.6432 24.4655 98.832 24.4785 98.8906 24.4785L97.416 25.4648ZM119.904 20.8359L117.463 22.6621L117.844 32.1641L119.807 33.0625L113.859 34.3027L116.281 32.1641L114.68 24.4199L112.502 33.0625L107.785 25.2012L106.506 32.2812L108.381 33.8633L103.42 34.1172L105.383 32.3398L105.988 22.1445L103.928 20.8359L108.742 20.6016L111.984 29.7617L114.465 20.6992L119.904 20.8359ZM128.531 27.916C128.531 28.2611 128.512 28.6322 128.473 29.0293C128.434 29.4264 128.375 29.8301 128.297 30.2402C128.225 30.6504 128.137 31.054 128.033 31.4512C127.936 31.8418 127.828 32.2031 127.711 32.5352L129.791 34L126.109 33.8438L126.334 32.6426C125.943 33.1309 125.491 33.5052 124.977 33.7656C124.469 34.0195 123.88 34.1725 123.209 34.2246C122.662 34.2637 122.184 34.2246 121.773 34.1074C121.37 33.9967 121.031 33.8242 120.758 33.5898C120.491 33.349 120.292 33.056 120.162 32.7109C120.032 32.3594 119.967 31.9688 119.967 31.5391C119.967 31.1419 120.064 30.7578 120.26 30.3867C120.455 30.0091 120.735 29.6771 121.1 29.3906C121.471 29.1042 121.923 28.8763 122.457 28.707C122.991 28.5312 123.596 28.4434 124.273 28.4434C124.586 28.4434 124.944 28.4727 125.348 28.5312C125.758 28.5898 126.145 28.7135 126.51 28.9023C126.477 28.5052 126.415 28.1016 126.324 27.6914C126.24 27.2747 126.113 26.8971 125.943 26.5586C125.774 26.2201 125.553 25.9466 125.279 25.7383C125.012 25.5234 124.677 25.416 124.273 25.416C123.928 25.416 123.593 25.4876 123.268 25.6309C122.942 25.7741 122.636 25.9792 122.35 26.2461C122.07 26.513 121.816 26.8385 121.588 27.2227C121.36 27.6068 121.168 28.0397 121.012 28.5215L120.191 23.7363L121.432 25.6406C121.738 25.263 122.047 24.9635 122.359 24.7422C122.672 24.5143 122.981 24.3418 123.287 24.2246C123.6 24.1009 123.899 24.0195 124.186 23.9805C124.479 23.9414 124.758 23.9219 125.025 23.9219C125.527 23.9479 125.989 24.0521 126.412 24.2344C126.842 24.4102 127.213 24.6673 127.525 25.0059C127.838 25.3379 128.082 25.748 128.258 26.2363C128.44 26.7246 128.531 27.2845 128.531 27.916ZM126.51 31.041C126.523 30.8587 126.533 30.6829 126.539 30.5137C126.546 30.3444 126.549 30.1784 126.549 30.0156V29.8984C126.314 29.8073 126.077 29.7389 125.836 29.6934C125.602 29.6413 125.383 29.6055 125.182 29.5859C124.98 29.5599 124.807 29.5469 124.664 29.5469C124.527 29.5404 124.436 29.5371 124.391 29.5371C124.02 29.5501 123.697 29.6185 123.424 29.7422C123.15 29.8659 122.923 30.0221 122.74 30.2109C122.564 30.3932 122.431 30.5983 122.34 30.8262C122.255 31.054 122.213 31.2786 122.213 31.5C122.213 32.0013 122.333 32.3822 122.574 32.6426C122.822 32.8965 123.18 33.0234 123.648 33.0234C123.961 33.0234 124.257 32.9681 124.537 32.8574C124.817 32.7467 125.077 32.6003 125.318 32.418C125.566 32.2292 125.787 32.0176 125.982 31.7832C126.184 31.5423 126.36 31.2949 126.51 31.041ZM139.395 25.3184L137.373 26.0215L133.213 29.9766C133.473 30.2956 133.724 30.569 133.965 30.7969C134.206 31.0247 134.434 31.2201 134.648 31.3828C134.863 31.5456 135.062 31.6758 135.244 31.7734C135.433 31.8711 135.605 31.946 135.762 31.998C136.12 32.1217 136.445 32.1608 136.738 32.1152C136.947 32.1022 137.171 32.0371 137.412 31.9199C137.62 31.8223 137.858 31.666 138.125 31.4512C138.398 31.2363 138.688 30.9271 138.994 30.5234C138.877 31.2461 138.704 31.8483 138.477 32.3301C138.255 32.8053 138.021 33.1862 137.773 33.4727C137.526 33.7526 137.288 33.9512 137.061 34.0684C136.839 34.1855 136.67 34.2441 136.553 34.2441C136.214 34.1921 135.84 34.0391 135.43 33.7852C135.254 33.681 135.059 33.5475 134.844 33.3848C134.635 33.222 134.411 33.0267 134.17 32.7988C133.936 32.571 133.685 32.304 133.418 31.998C133.151 31.6855 132.878 31.3275 132.598 30.9238L132.617 32.7988L133.916 33.8828H129.033L130.537 32.6621L131.23 21.7832L129.053 20.6992L132.51 20.123L132.578 28.9609L135.312 25.4648L134.189 24.2246L139.395 25.3184ZM141.537 30.416C141.622 30.7806 141.736 31.1387 141.879 31.4902C142.022 31.8353 142.198 32.1445 142.406 32.418C142.615 32.6914 142.855 32.9128 143.129 33.082C143.402 33.2513 143.712 33.3359 144.057 33.3359C144.512 33.3359 144.91 33.2415 145.248 33.0527C145.587 32.8639 145.863 32.6263 146.078 32.3398C146.293 32.0469 146.443 31.7279 146.527 31.3828C146.612 31.0312 146.628 30.696 146.576 30.377C146.758 30.4486 146.908 30.543 147.025 30.6602C147.149 30.7773 147.243 30.9076 147.309 31.0508C147.38 31.1875 147.429 31.3307 147.455 31.4805C147.481 31.6237 147.494 31.7637 147.494 31.9004C147.494 32.2129 147.403 32.5156 147.221 32.8086C147.038 33.0951 146.781 33.3522 146.449 33.5801C146.124 33.8014 145.736 33.9805 145.287 34.1172C144.838 34.2539 144.346 34.3223 143.812 34.3223C143.096 34.3223 142.455 34.1823 141.889 33.9023C141.329 33.6224 140.854 33.2448 140.463 32.7695C140.072 32.2878 139.773 31.7246 139.564 31.0801C139.356 30.4355 139.252 29.7487 139.252 29.0195C139.252 28.2773 139.356 27.5938 139.564 26.9688C139.773 26.3372 140.079 25.8001 140.482 25.3574C140.893 24.9147 141.394 24.5794 141.986 24.3516C142.579 24.1237 143.262 24.0326 144.037 24.0781C144.571 24.1172 145.062 24.2702 145.512 24.5371C145.961 24.804 146.352 25.1491 146.684 25.5723C147.022 25.9889 147.292 26.4674 147.494 27.0078C147.702 27.5482 147.829 28.1113 147.875 28.6973L141.537 30.416ZM141.352 28.8438C141.352 28.9349 141.352 29.026 141.352 29.1172C141.352 29.2018 141.358 29.2897 141.371 29.3809L145.658 27.8184C145.515 27.3496 145.352 26.9492 145.17 26.6172C144.994 26.2786 144.809 26.002 144.613 25.7871C144.418 25.5723 144.219 25.416 144.018 25.3184C143.822 25.2142 143.633 25.1621 143.451 25.1621C143.178 25.1621 142.937 25.2142 142.729 25.3184C142.52 25.4225 142.338 25.5658 142.182 25.748C142.032 25.9238 141.902 26.1322 141.791 26.373C141.687 26.6139 141.602 26.8711 141.537 27.1445C141.472 27.418 141.423 27.7012 141.391 27.9941C141.365 28.2806 141.352 28.5638 141.352 28.8438ZM149.158 27.9844L149.256 26.5195L155.672 25.9824V28.4043L149.158 27.9844ZM169.016 20.6992L167.033 22.3008C167.046 22.5742 167.056 22.8509 167.062 23.1309C167.076 23.4108 167.082 23.6615 167.082 23.8828C167.082 24.7617 167.076 25.6243 167.062 26.4707C167.056 27.3105 167.014 28.1113 166.936 28.873C166.857 29.6283 166.734 30.3281 166.564 30.9727C166.402 31.6107 166.164 32.1641 165.852 32.6328C165.539 33.0951 165.142 33.4596 164.66 33.7266C164.178 33.987 163.583 34.1172 162.873 34.1172C162.157 34.1172 161.545 33.9447 161.037 33.5996C160.529 33.2546 160.1 32.7891 159.748 32.2031C159.403 31.6172 159.123 30.9368 158.908 30.1621C158.7 29.3809 158.534 28.554 158.41 27.6816C158.286 26.8092 158.195 25.9173 158.137 25.0059C158.085 24.0944 158.039 23.2122 158 22.3594L156.037 21.1973L162.873 20.4844L160.734 22.0762C160.721 22.278 160.715 22.4798 160.715 22.6816C160.715 22.877 160.715 23.0755 160.715 23.2773C160.715 23.7331 160.715 24.2214 160.715 24.7422C160.715 25.263 160.725 25.7969 160.744 26.3438C160.764 26.8841 160.793 27.4277 160.832 27.9746C160.871 28.515 160.926 29.0358 160.998 29.5371C161.076 30.0384 161.174 30.5039 161.291 30.9336C161.408 31.3633 161.555 31.7376 161.73 32.0566C161.906 32.3757 162.111 32.6263 162.346 32.8086C162.587 32.9909 162.863 33.082 163.176 33.082C163.592 33.082 163.973 32.9714 164.318 32.75C164.663 32.5286 164.96 32.1836 165.207 31.7148C165.454 31.2396 165.646 30.6309 165.783 29.8887C165.926 29.1465 165.998 28.2513 165.998 27.2031C165.998 25.9271 165.952 24.8919 165.861 24.0977C165.777 23.3034 165.695 22.7109 165.617 22.3203L163.635 21.3828L169.016 20.6992ZM172.037 25.4648C172.187 25.2826 172.35 25.1165 172.525 24.9668C172.701 24.8105 172.893 24.6771 173.102 24.5664C173.31 24.4492 173.531 24.3581 173.766 24.293C174.007 24.2279 174.264 24.1953 174.537 24.1953C175.038 24.2148 175.514 24.332 175.963 24.5469C176.419 24.7617 176.816 25.071 177.154 25.4746C177.499 25.8717 177.773 26.3633 177.975 26.9492C178.176 27.5286 178.277 28.1927 178.277 28.9414C178.277 29.8529 178.17 30.6504 177.955 31.334C177.74 32.0176 177.447 32.5872 177.076 33.043C176.705 33.4922 176.269 33.8307 175.768 34.0586C175.273 34.2865 174.742 34.4004 174.176 34.4004C173.681 34.4004 173.222 34.3158 172.799 34.1465C172.376 33.9772 172.008 33.7428 171.695 33.4434L171.598 35.6406L173.551 36.6953L168.756 37.5156L170.23 36.041L169.83 25.582L168.053 24.8789L172.096 24.1953L172.037 25.4648ZM174.234 25.4355C174.143 25.4355 174.013 25.4518 173.844 25.4844C173.674 25.5169 173.482 25.5918 173.268 25.709C173.059 25.8262 172.838 25.9954 172.604 26.2168C172.376 26.4382 172.158 26.7376 171.949 27.1152L171.754 31.9785C171.962 32.304 172.216 32.5742 172.516 32.7891C172.822 32.9974 173.16 33.1016 173.531 33.1016C173.974 33.1016 174.355 32.9909 174.674 32.7695C174.993 32.5482 175.253 32.2422 175.455 31.8516C175.663 31.4544 175.813 30.9889 175.904 30.4551C176.002 29.9212 176.051 29.3418 176.051 28.7168C176.051 28.2611 176.012 27.8346 175.934 27.4375C175.855 27.0339 175.742 26.6855 175.592 26.3926C175.442 26.0931 175.253 25.8587 175.025 25.6895C174.798 25.5202 174.534 25.4355 174.234 25.4355Z" fill="#FEC195"/>
    <circle cx="28.5" cy="28.5" r="28.5" fill="#FEC195"/>
    <rect x="4" y="22.5309" width="13" height="35" transform="rotate(-20.3974 4 22.5309)" fill="#323131"/>
    <rect x="26.296" y="15" width="8" height="20" transform="rotate(24.5067 26.296 15)" fill="#323131"/>
    <rect x="43.3093" y="38.549" width="8" height="29" transform="rotate(110.21 43.3093 38.549)" fill="#323131"/>
    <path d="M41.5 7L43.1839 12.1824H48.6329L44.2245 15.3853L45.9084 20.5676L41.5 17.3647L37.0916 20.5676L38.7755 15.3853L34.3671 12.1824H39.8161L41.5 7Z" fill="#323131"/>
    <path d="M41 24L42.1226 27.4549H45.7553L42.8164 29.5902L43.9389 33.0451L41 30.9098L38.0611 33.0451L39.1836 29.5902L36.2447 27.4549H39.8774L41 24Z" fill="#323131"/>
</svg>
